<?xml version="1.0" standalone="no"?>
<!DOCTYPE svg PUBLIC "-//W3C//DTD SVG 20010904//EN"
 "http://www.w3.org/TR/2001/REC-SVG-20010904/DTD/svg10.dtd">
<svg version="1.0" xmlns="http://www.w3.org/2000/svg"
 width="366.000000pt" height="366.000000pt" viewBox="0 0 366.000000 366.000000"
 preserveAspectRatio="xMidYMid meet">
<metadata>
Created by potrace 1.11, written by Peter Selinger 2001-2013
</metadata>
<g transform="translate(0.000000,366.000000) scale(0.100000,-0.100000)"
fill="#000000" stroke="none">
<path d="M1666 3649 c-230 -22 -434 -81 -651 -189 -173 -86 -297 -174 -437
-309 -175 -168 -284 -315 -383 -516 -207 -422 -242 -929 -94 -1377 192 -581
688 -1045 1274 -1191 183 -46 239 -52 470 -51 199 0 232 3 346 27 287 61 541
177 764 352 546 426 804 1129 664 1810 -135 653 -632 1191 -1274 1378 -198 58
-476 85 -679 66z m530 -53 c642 -136 1154 -597 1352 -1218 65 -202 76 -280 77
-538 0 -264 -14 -362 -80 -568 -45 -139 -158 -363 -243 -481 -78 -110 -226
-268 -326 -350 -542 -443 -1283 -534 -1914 -235 -569 269 -952 812 -1021 1446
-26 238 2 504 80 740 42 129 166 375 243 483 255 353 618 600 1036 704 178 44
239 50 470 46 173 -3 224 -7 326 -29z"/>
<path d="M1540 3499 c-604 -109 -1104 -534 -1305 -1109 -19 -57 -48 -160 -62
-229 -23 -111 -27 -149 -27 -321 0 -274 37 -460 137 -689 91 -205 188 -344
366 -521 303 -302 682 -468 1112 -487 836 -37 1567 542 1736 1372 14 72 18
136 18 320 0 202 -3 243 -23 335 -41 188 -126 404 -215 545 -141 225 -354 436
-574 568 -153 93 -344 167 -531 208 -148 32 -475 36 -632 8z m569 -23 c734
-134 1280 -702 1376 -1433 104 -796 -381 -1553 -1156 -1801 -178 -57 -251 -67
-499 -67 -195 0 -238 3 -327 23 -597 131 -1065 545 -1252 1110 -63 190 -75
274 -75 522 -1 198 2 238 22 330 158 723 721 1239 1452 1329 101 13 356 5 459
-13z"/>
<path d="M1788 3371 c-30 -27 -33 -35 -33 -86 0 -51 3 -59 33 -86 42 -37 114
-41 156 -8 34 27 20 50 -15 25 -38 -26 -86 -20 -121 14 -25 26 -29 36 -24 63
13 67 85 96 147 60 39 -23 51 -7 16 23 -42 36 -116 34 -159 -5z"/>
<path d="M2025 3358 c-23 -132 -31 -188 -27 -193 17 -16 30 1 36 46 l7 52 46
-7 c26 -3 48 -8 50 -9 2 -2 -1 -25 -6 -51 -7 -38 -6 -49 6 -53 7 -3 15 -4 17
-2 2 2 10 51 20 108 11 71 13 108 7 114 -15 15 -22 4 -28 -43 -6 -40 -7 -42
-36 -36 -16 3 -38 6 -49 6 -18 0 -19 5 -13 50 6 41 4 50 -9 50 -9 0 -17 -12
-21 -32z"/>
<path d="M1517 3370 c-20 -4 -39 -9 -41 -11 -4 -4 17 -141 29 -196 3 -13 12
-23 20 -23 12 0 14 10 9 55 -7 55 -7 55 20 55 37 0 79 43 71 73 -8 25 -41 58
-59 56 -6 -1 -28 -5 -49 -9z m71 -54 c4 -21 -13 -36 -44 -36 -21 0 -34 17 -34
46 0 24 74 14 78 -10z"/>
<path d="M2250 3349 c0 -2 -13 -51 -30 -109 -16 -58 -30 -106 -30 -107 0 -4
103 -33 117 -33 32 0 9 28 -32 40 -41 12 -44 15 -39 39 10 39 19 45 55 32 43
-15 59 -14 59 4 0 9 -17 19 -46 26 -42 11 -45 14 -39 38 4 14 8 27 9 28 1 1
23 -4 49 -12 31 -9 49 -10 53 -4 9 15 -4 24 -55 38 -23 7 -49 15 -57 18 -8 3
-14 4 -14 2z"/>
<path d="M1303 3323 c-12 -2 -36 -20 -53 -39 -72 -83 -11 -202 98 -191 78 8
124 79 100 152 -20 59 -80 92 -145 78z m96 -59 c21 -26 27 -67 15 -99 -8 -19
-55 -45 -84 -45 -33 0 -80 53 -80 90 0 73 104 111 149 54z"/>
<path d="M2411 3269 c-5 -13 -23 -59 -40 -103 -18 -43 -30 -79 -29 -81 11 -7
109 -45 117 -45 6 0 11 6 11 14 0 8 -20 22 -45 32 -35 13 -44 21 -39 33 3 9 9
24 11 34 6 20 20 21 53 2 32 -18 60 -19 60 -1 0 7 -20 21 -44 30 -35 14 -43
21 -39 37 8 29 18 31 63 13 36 -14 43 -15 51 -3 6 10 -2 18 -33 32 -72 31 -87
32 -97 6z"/>
<path d="M1053 3213 c-18 -9 -33 -21 -33 -26 0 -5 20 -52 44 -103 34 -72 48
-92 60 -88 20 8 20 7 -4 54 -11 22 -18 40 -15 40 3 0 28 -12 56 -26 47 -24 79
-26 79 -6 0 4 -23 18 -51 29 l-50 22 23 31 c21 29 21 33 7 58 -18 33 -68 39
-116 15z m85 -40 c2 -16 -5 -26 -26 -37 -28 -15 -30 -14 -41 12 -11 22 -10 28
6 39 26 20 57 12 61 -14z"/>
<path d="M2578 3206 c-27 -14 -29 -53 -7 -124 12 -37 11 -44 -1 -52 -23 -15
-30 -12 -48 20 -22 39 -47 41 -38 3 15 -64 82 -81 119 -31 l21 28 -23 55 c-12
30 -20 59 -16 65 10 16 33 12 45 -10 12 -22 40 -27 40 -7 0 20 -28 54 -49 60
-11 2 -30 -1 -43 -7z"/>
<path d="M2667 3048 c-32 -50 -56 -92 -55 -93 43 -31 99 -65 107 -65 25 0 8
31 -28 52 l-40 24 21 32 20 32 36 -25 c20 -14 42 -25 49 -25 26 0 12 26 -28
51 -39 25 -40 26 -22 48 l18 22 38 -26 c34 -24 57 -26 57 -5 0 9 -92 70 -106
70 -5 0 -35 -42 -67 -92z"/>
<path d="M853 3094 c-24 -14 -43 -29 -43 -35 0 -16 113 -179 124 -179 6 0 32
16 58 35 53 39 66 75 48 130 -25 76 -107 98 -187 49z m131 -26 c14 -13 28 -35
32 -50 5 -23 0 -34 -29 -63 -19 -19 -40 -35 -45 -35 -10 0 -97 129 -90 134 58
43 95 47 132 14z"/>
<path d="M1671 3059 c-337 -39 -617 -252 -638 -485 l-5 -60 -92 -16 c-116 -22
-249 -60 -345 -100 -99 -42 -181 -118 -181 -169 0 -92 114 -170 345 -238 83
-24 247 -58 327 -67 32 -4 63 -13 69 -20 18 -22 32 -16 27 11 -3 14 -1 25 3
25 5 0 9 9 9 20 0 26 -17 26 -25 -1 -6 -19 -12 -20 -58 -14 -204 27 -464 99
-563 156 -51 28 -104 80 -104 100 0 5 157 9 386 9 l387 0 -7 -40 c-5 -31 -3
-40 8 -40 9 0 16 16 20 45 6 37 13 48 38 61 37 19 197 54 251 54 l37 0 0 -47
c0 -27 -3 -71 -6 -99 l-6 -51 -48 15 -48 15 -219 -192 -218 -192 -5 -144 c-3
-80 -3 -145 0 -145 3 0 113 34 245 75 131 41 241 72 244 70 2 -3 -2 -51 -9
-107 -7 -57 -14 -118 -15 -137 -2 -26 -31 -72 -122 -195 -66 -88 -123 -166
-126 -172 -6 -11 134 -193 161 -209 27 -15 162 -11 202 7 l35 15 53 242 54
241 -68 95 c-38 52 -71 95 -74 95 -3 0 -23 -25 -44 -55 -22 -30 -41 -53 -43
-51 -3 2 0 36 5 74 6 39 9 84 8 101 -1 17 1 31 6 31 4 0 8 9 8 20 0 16 16 25
91 47 l91 28 -6 74 c-3 41 -6 108 -6 150 l0 75 -69 67 c-39 37 -66 69 -62 71
5 2 11 45 13 96 3 51 7 95 10 98 3 3 81 6 172 7 182 2 186 1 186 -55 0 -19 5
-28 16 -28 11 0 14 6 9 23 -8 24 -8 25 -6 46 1 11 16 12 79 6 111 -10 230 -34
280 -55 36 -16 42 -23 42 -49 0 -22 5 -31 16 -31 12 0 15 7 12 25 l-5 25 419
0 419 0 -15 -28 c-43 -82 -267 -170 -566 -221 -203 -35 -207 -35 -215 -11 -11
36 -28 23 -21 -17 3 -21 6 -46 6 -55 0 -11 5 -15 14 -12 7 3 13 12 12 21 -1
13 22 19 119 34 310 45 535 117 631 201 128 113 44 227 -236 318 -84 27 -321
80 -360 80 -15 0 -20 10 -26 48 -37 256 -299 451 -657 491 -108 12 -139 12
-246 0z m312 -34 c245 -43 450 -174 528 -339 27 -56 47 -141 37 -152 -3 -2
-65 3 -137 11 -365 43 -1043 32 -1330 -21 l-34 -7 7 49 c9 63 56 163 103 220
95 117 307 220 508 247 73 10 240 6 318 -8z m380 -500 c449 -47 748 -135 842
-247 l28 -33 -423 -3 c-405 -2 -425 -1 -464 18 -192 92 -890 93 -1082 0 -38
-19 -63 -20 -432 -20 -285 0 -392 3 -392 11 0 23 76 83 145 115 184 84 495
146 885 174 180 13 717 4 893 -15z m-826 -459 c63 -30 142 -105 122 -116 -22
-13 -591 -211 -595 -208 -6 7 390 348 405 348 9 0 39 -11 68 -24z m133 -159
c0 -8 -10 -13 -22 -13 -17 1 -24 -5 -26 -22 -5 -30 26 -42 44 -17 12 16 14 6
14 -79 l0 -97 -24 28 c-19 22 -32 28 -65 28 -49 0 -80 -26 -90 -76 l-7 -33
-232 -72 -232 -71 0 107 0 107 76 28 c75 26 77 26 110 9 27 -15 37 -16 59 -6
15 7 32 26 38 42 10 26 25 34 181 89 94 33 172 60 174 60 1 1 2 -5 2 -12z
m-390 -142 c-13 -16 -42 -20 -54 -8 -7 7 55 34 63 27 2 -2 -2 -10 -9 -19z
m356 -72 c15 -16 14 -18 -18 -29 -18 -6 -48 -15 -66 -19 -28 -6 -31 -4 -25 12
18 52 74 70 109 36z m8 -331 c25 -34 46 -68 46 -75 -1 -22 -75 -114 -88 -110
-7 3 -24 -3 -38 -12 -22 -14 -25 -23 -22 -53 4 -33 -4 -49 -76 -151 -45 -63
-84 -119 -87 -124 -4 -5 -13 -6 -20 -2 -9 6 -7 10 9 16 12 5 22 15 22 23 0 20
-27 27 -43 11 -14 -14 -23 -6 -88 81 -6 7 1 9 21 6 61 -9 104 50 80 109 -11
27 -6 36 106 189 65 88 122 159 125 158 4 -2 28 -31 53 -66z m7 -337 c-43
-189 -50 -211 -72 -222 -26 -14 -157 -17 -176 -5 -8 5 36 76 139 225 83 120
152 217 153 215 2 -2 -18 -97 -44 -213z m-68 101 c-10 -13 -20 -20 -21 -15 -7
17 7 39 23 39 14 0 14 -3 -2 -24z m-239 -62 c8 -20 -9 -51 -35 -65 -35 -18
-41 4 -12 44 29 41 38 45 47 21z"/>
<path d="M1324 2884 c-70 -33 -138 -95 -163 -147 -24 -51 -26 -67 -7 -67 7 0
16 13 19 30 13 62 121 153 215 181 23 7 42 16 42 21 0 16 -56 7 -106 -18z"/>
<path d="M1420 1795 c-20 -24 0 -50 36 -50 26 0 29 4 29 30 0 25 -4 31 -26 33
-15 2 -31 -4 -39 -13z m40 -20 c0 -8 -4 -15 -10 -15 -5 0 -10 7 -10 15 0 8 5
15 10 15 6 0 10 -7 10 -15z"/>
<path d="M1067 1692 c-20 -22 -22 -63 -5 -80 21 -21 66 -14 83 12 36 55 -35
116 -78 68z m60 -28 c3 -8 -2 -23 -11 -32 -15 -15 -17 -15 -32 0 -21 21 -11
48 16 48 11 0 23 -7 27 -16z"/>
<path d="M1305 1690 c-23 -25 -13 -67 20 -82 52 -23 100 46 59 86 -21 22 -57
20 -79 -4z m64 -19 c13 -23 -10 -47 -34 -37 -18 7 -20 42 -2 49 21 9 26 7 36
-12z"/>
<path d="M1592 1318 c-21 -21 -14 -57 12 -70 45 -20 74 8 62 57 -5 19 -13 25
-34 25 -15 0 -33 -5 -40 -12z m55 -24 c8 -22 -18 -37 -36 -20 -7 8 -10 19 -7
25 10 16 36 13 43 -5z"/>
<path d="M1431 1196 c-7 -8 -11 -27 -9 -43 2 -22 9 -29 31 -31 50 -6 75 38 41
72 -19 20 -48 20 -63 2z m52 -42 c-3 -8 -12 -14 -19 -14 -20 0 -30 30 -13 40
17 11 40 -7 32 -26z"/>
<path d="M1424 1046 c-10 -26 4 -48 28 -44 17 2 23 10 23 28 0 18 -6 26 -23
28 -13 2 -25 -3 -28 -12z m36 -16 c0 -5 -4 -10 -10 -10 -5 0 -10 5 -10 10 0 6
5 10 10 10 6 0 10 -4 10 -10z"/>
<path d="M1954 2194 c3 -9 6 -31 6 -50 0 -24 5 -34 15 -34 16 0 21 35 6 44 -4
3 -6 17 -3 31 3 19 0 25 -13 25 -12 0 -15 -5 -11 -16z"/>
<path d="M2380 2126 c0 -17 5 -26 16 -26 10 0 14 7 12 22 -5 32 -28 35 -28 4z"/>
<path d="M1197 2113 c-2 -5 -7 -26 -11 -48 -4 -22 -9 -48 -12 -57 -3 -12 0
-18 9 -18 16 0 33 63 22 80 -3 6 -1 10 4 10 6 0 11 9 11 20 0 20 -15 27 -23
13z"/>
<path d="M1970 2080 c0 -11 5 -20 10 -20 6 0 10 9 10 20 0 11 -4 20 -10 20 -5
0 -10 -9 -10 -20z"/>
<path d="M2390 2066 c0 -17 5 -26 16 -26 10 0 14 7 12 22 -5 32 -28 35 -28 4z"/>
<path d="M1970 2025 c0 -16 6 -25 15 -25 9 0 15 9 15 25 0 16 -6 25 -15 25 -9
0 -15 -9 -15 -25z"/>
<path d="M2400 2005 c0 -16 6 -25 15 -25 16 0 19 9 9 34 -9 25 -24 19 -24 -9z"/>
<path d="M1980 1970 c0 -11 6 -20 14 -20 9 0 12 7 9 20 -3 11 -9 20 -14 20 -5
0 -9 -9 -9 -20z"/>
<path d="M1990 1925 c-52 -25 -108 -51 -124 -58 l-28 -13 231 -257 c127 -141
236 -257 241 -257 6 0 50 20 99 45 l90 44 5 -29 c3 -17 9 -43 12 -60 3 -16 10
-30 15 -30 10 0 2 106 -8 123 -3 5 4 15 16 23 46 32 78 147 66 234 l-7 48 -73
32 c-41 18 -74 35 -73 39 3 28 -4 52 -14 48 -7 -2 -12 -11 -10 -21 2 -9 0 -16
-4 -16 -3 0 -78 34 -166 75 -88 41 -163 75 -166 75 -4 -1 -50 -21 -102 -45z
m585 -288 c-1 -57 -6 -94 -19 -122 l-17 -40 -185 190 c-101 105 -202 211 -224
237 l-40 46 242 -114 243 -114 0 -83z m-455 238 c46 -47 54 -60 52 -88 -4 -46
18 -71 62 -70 34 1 44 -7 156 -125 79 -84 115 -129 107 -134 -8 -5 -13 0 -15
12 -5 28 -52 28 -52 1 0 -11 5 -23 11 -27 6 -3 -20 -23 -58 -44 -37 -21 -69
-37 -71 -35 -1 1 2 14 9 28 15 32 5 70 -24 97 -17 17 -32 21 -68 18 l-46 -3
-153 170 -152 170 88 42 c49 23 91 42 94 42 3 1 30 -24 60 -54z m105 -105 c21
-23 12 -39 -13 -24 -19 12 -29 44 -14 44 5 0 17 -9 27 -20z m60 -300 c18 -19
24 -65 10 -78 -8 -8 -85 80 -79 90 10 15 51 8 69 -12z"/>
<path d="M2008 1874 c-21 -45 21 -87 66 -66 28 13 36 58 14 80 -22 22 -67 14
-80 -14z m70 -20 c4 -29 -28 -41 -45 -18 -10 13 -10 21 -1 31 16 19 42 12 46
-13z"/>
<path d="M2116 1674 c-9 -8 -16 -22 -16 -30 0 -19 36 -54 55 -54 16 0 55 34
55 48 0 4 -7 18 -16 30 -18 26 -56 29 -78 6z m62 -28 c4 -21 -14 -37 -35 -29
-14 5 -18 35 -6 47 12 12 38 1 41 -18z"/>
<path d="M2265 1609 c-5 -13 -2 -27 8 -36 24 -24 59 -8 55 25 -4 36 -53 45
-63 11z m45 -9 c0 -5 -7 -10 -16 -10 -8 0 -12 5 -9 10 3 6 10 10 16 10 5 0 9
-4 9 -10z"/>
<path d="M2018 1614 c-10 -9 4 -44 17 -44 8 0 10 9 7 25 -4 24 -13 31 -24 19z"/>
<path d="M2020 1540 c0 -11 7 -20 15 -20 8 0 15 9 15 20 0 11 -7 20 -15 20 -8
0 -15 -9 -15 -20z"/>
<path d="M2030 1490 c0 -11 5 -20 10 -20 6 0 10 9 10 20 0 11 -4 20 -10 20 -5
0 -10 -9 -10 -20z"/>
<path d="M1058 1435 c-3 -14 -1 -28 4 -31 12 -8 15 -4 20 25 4 33 -18 38 -24
6z"/>
<path d="M2030 1440 c0 -11 7 -20 15 -20 8 0 15 9 15 20 0 11 -7 20 -15 20 -8
0 -15 -9 -15 -20z"/>
<path d="M2040 1390 c0 -11 5 -20 10 -20 6 0 10 9 10 20 0 11 -4 20 -10 20 -5
0 -10 -9 -10 -20z"/>
<path d="M1045 1370 c-3 -11 -4 -24 0 -29 3 -5 1 -12 -5 -16 -13 -8 -13 -55
-1 -55 12 0 24 37 16 49 -3 5 -1 12 5 16 13 8 13 55 1 55 -5 0 -12 -9 -16 -20z"/>
<path d="M2040 1340 c0 -11 7 -20 15 -20 8 0 15 9 15 20 0 11 -7 20 -15 20 -8
0 -15 -9 -15 -20z"/>
<path d="M2047 1290 c3 -11 9 -20 14 -20 5 0 9 9 9 20 0 11 -6 20 -14 20 -9 0
-12 -7 -9 -20z"/>
<path d="M2525 1283 c4 -10 8 -29 9 -43 8 -80 19 -120 33 -120 8 0 12 4 9 9
-3 5 -8 26 -11 47 -13 107 -18 124 -32 124 -10 0 -13 -6 -8 -17z"/>
<path d="M1018 1235 c-3 -14 -1 -28 4 -31 12 -8 15 -4 20 25 4 33 -18 38 -24
6z"/>
<path d="M1935 1246 c-49 -16 -105 -44 -105 -54 -1 -4 -9 -137 -19 -297 l-19
-290 96 -98 c53 -53 99 -97 102 -97 3 0 37 61 75 135 66 128 85 154 85 120 0
-8 5 -15 10 -15 6 0 10 11 10 25 0 14 -5 25 -11 25 -6 0 30 78 80 174 50 96
91 176 91 179 0 3 -49 51 -110 106 l-109 101 -68 -1 c-37 0 -86 -6 -108 -13z
m153 -15 c10 -6 -18 -74 -124 -295 -75 -157 -139 -285 -140 -283 -2 2 3 104
11 228 8 123 15 241 15 261 0 34 4 40 41 58 63 33 169 49 197 31z m60 -40 c10
-6 9 -10 -7 -14 -23 -6 -29 -42 -8 -50 21 -7 37 4 37 26 0 16 12 9 63 -39 71
-68 76 -74 48 -67 -32 8 -80 -16 -97 -49 -17 -33 -12 -72 13 -100 14 -16 6
-36 -98 -233 -62 -118 -116 -215 -120 -215 -3 0 -39 34 -78 75 l-71 75 37 75
c28 55 43 75 57 75 28 0 66 39 66 67 0 13 -5 32 -12 42 -10 16 1 44 67 180 43
88 81 161 84 161 3 0 12 -4 19 -9z m132 -176 c0 -14 -51 -105 -59 -105 -24 0
-27 57 -5 88 13 19 64 32 64 17z m-324 -221 c-3 -8 -12 -14 -21 -14 -13 0 -12
5 3 37 15 32 17 33 20 14 2 -12 1 -29 -2 -37z"/>
<path d="M2052 978 c-28 -28 -1 -75 38 -63 14 4 20 15 20 35 0 36 -33 53 -58
28z m38 -28 c0 -5 -7 -10 -15 -10 -8 0 -15 5 -15 10 0 6 7 10 15 10 8 0 15 -4
15 -10z"/>
<path d="M2052 834 c-41 -28 -19 -94 32 -94 26 0 56 29 56 53 0 20 -34 57 -53
57 -7 0 -23 -7 -35 -16z m56 -40 c2 -12 -4 -24 -12 -27 -20 -8 -47 19 -39 39
8 22 47 13 51 -12z"/>
<path d="M1876 654 c-34 -33 -7 -94 42 -94 22 0 52 34 52 61 0 41 -64 63 -94
33z m62 -38 c-4 -25 -43 -34 -51 -12 -8 20 19 47 39 39 8 -3 14 -15 12 -27z"/>
<path d="M2607 1243 c-26 -4 -28 -7 -21 -36 3 -18 10 -34 15 -37 4 -3 4 -12
-1 -20 -11 -17 5 -50 25 -50 8 0 24 13 36 30 22 29 43 32 32 5 -3 -8 0 -15 6
-15 17 0 13 47 -4 54 -15 5 -55 -29 -55 -47 0 -21 -25 2 -26 24 0 13 -4 34 -7
45 -6 17 -3 23 13 27 16 4 20 0 20 -19 0 -13 5 -24 11 -24 7 0 9 10 7 25 -6
30 17 35 25 5 8 -32 24 -23 19 10 -5 32 -17 35 -95 23z"/>
<path d="M1006 1174 c-10 -25 -7 -34 9 -34 9 0 15 9 15 25 0 28 -15 34 -24 9z"/>
<path d="M997 1124 c-10 -11 -8 -54 2 -54 14 0 25 40 14 51 -5 5 -12 6 -16 3z"/>
<path d="M2557 1090 c3 -11 9 -20 14 -20 5 0 9 9 9 20 0 11 -6 20 -14 20 -9 0
-12 -7 -9 -20z"/>
<path d="M2697 1096 c-3 -7 -24 -16 -46 -20 -23 -3 -41 -11 -41 -16 0 -12 4
-12 55 0 28 6 42 6 47 -3 11 -19 20 -2 12 27 -7 28 -19 34 -27 12z"/>
<path d="M978 1035 c-3 -14 -1 -28 4 -31 12 -8 14 -5 22 29 5 20 3 27 -8 27
-7 0 -16 -11 -18 -25z"/>
<path d="M2564 1043 c3 -10 8 -39 12 -65 4 -31 11 -48 20 -48 16 0 19 26 4 35
-6 4 -8 10 -5 16 11 16 -7 79 -22 79 -9 0 -12 -7 -9 -17z"/>
<path d="M2620 1010 c0 -5 5 -10 10 -10 6 0 10 5 10 10 0 6 -4 10 -10 10 -5 0
-10 -4 -10 -10z"/>
<path d="M966 974 c-10 -25 -7 -34 9 -34 9 0 15 9 15 25 0 28 -15 34 -24 9z"/>
<path d="M2710 951 c0 -5 7 -11 15 -15 8 -3 15 -10 15 -16 0 -21 -30 -21 -59
-1 -40 29 -48 27 -43 -14 5 -39 19 -47 24 -14 l3 21 25 -20 c24 -21 24 -21 4
-22 -48 0 -58 -58 -13 -74 56 -19 119 47 69 74 -18 10 -19 13 -5 26 19 19 19
29 -1 48 -17 18 -34 21 -34 7z m37 -107 c7 -19 -13 -34 -44 -34 -30 0 -40 20
-18 37 25 18 54 17 62 -3z"/>
<path d="M957 923 c-10 -10 -8 -53 2 -53 10 0 21 24 21 46 0 15 -12 19 -23 7z"/>
<path d="M2590 900 c0 -11 7 -20 15 -20 17 0 18 2 9 24 -9 23 -24 20 -24 -4z"/>
<path d="M2597 854 c6 -17 10 -42 12 -86 1 -19 6 -28 17 -28 13 0 15 6 10 33
-4 17 -10 47 -13 65 -3 17 -12 32 -19 32 -8 0 -11 -6 -7 -16z"/>
<path d="M938 836 c-3 -15 0 -27 8 -30 8 -3 14 1 14 8 0 8 3 21 6 30 4 10 1
16 -9 16 -8 0 -17 -11 -19 -24z"/>
<path d="M926 774 c-10 -25 -7 -34 9 -34 9 0 15 9 15 25 0 28 -15 34 -24 9z"/>
<path d="M2760 771 c0 -5 -20 -12 -45 -15 -25 -4 -45 -11 -45 -17 0 -11 -2
-11 60 2 31 7 50 16 50 25 0 8 -4 14 -10 14 -5 0 -10 -4 -10 -9z"/>
<path d="M1427 744 c-10 -10 -9 -54 2 -54 12 0 22 43 13 52 -5 5 -11 5 -15 2z"/>
<path d="M910 700 c0 -16 5 -30 10 -30 6 0 10 3 10 8 0 4 3 17 6 30 5 16 2 22
-10 22 -11 0 -16 -9 -16 -30z"/>
<path d="M2620 711 c0 -12 6 -21 16 -21 9 0 14 7 12 17 -5 25 -28 28 -28 4z"/>
<path d="M2733 691 c-4 -16 -9 -18 -30 -10 -18 7 -24 6 -21 -3 2 -6 23 -18 45
-27 35 -12 44 -12 58 -1 25 21 15 54 -18 58 -22 3 -30 -1 -34 -17z m47 -17 c0
-14 -21 -19 -33 -7 -9 9 13 34 24 27 5 -3 9 -12 9 -20z"/>
<path d="M1416 664 c-10 -25 -7 -34 9 -34 9 0 15 9 15 25 0 28 -15 34 -24 9z"/>
<path d="M2636 623 c7 -63 10 -73 25 -73 6 0 8 18 4 48 -9 64 -15 82 -26 82
-6 0 -7 -22 -3 -57z"/>
<path d="M900 651 c0 -5 -3 -16 -6 -25 -4 -10 -1 -16 9 -16 8 0 17 11 19 25 4
17 1 25 -8 25 -8 0 -14 -4 -14 -9z"/>
<path d="M2150 615 c0 -16 6 -25 15 -25 16 0 19 9 9 34 -9 25 -24 19 -24 -9z"/>
<path d="M1410 595 c0 -14 4 -25 9 -25 5 0 11 11 13 25 4 17 1 25 -8 25 -8 0
-14 -11 -14 -25z"/>
<path d="M884 575 c-3 -14 -4 -28 -1 -31 10 -10 27 7 27 26 0 30 -19 33 -26 5z"/>
<path d="M2158 555 c2 -14 8 -25 13 -25 5 0 9 11 9 25 0 14 -6 25 -14 25 -9 0
-12 -8 -8 -25z"/>
<path d="M1407 553 c-13 -12 -7 -43 8 -43 9 0 15 9 15 25 0 24 -10 32 -23 18z"/>
<path d="M2650 520 c0 -11 7 -20 15 -20 8 0 15 9 15 20 0 11 -7 20 -15 20 -8
0 -15 -9 -15 -20z"/>
<path d="M2160 495 c0 -16 6 -25 15 -25 16 0 19 9 9 34 -9 25 -24 19 -24 -9z"/>
<path d="M1400 475 c0 -14 5 -25 10 -25 6 0 10 11 10 25 0 14 -4 25 -10 25 -5
0 -10 -11 -10 -25z"/>
<path d="M2660 471 c0 -12 6 -21 16 -21 9 0 14 7 12 17 -5 25 -28 28 -28 4z"/>
<path d="M2170 430 c0 -16 5 -30 10 -30 6 0 10 14 10 30 0 17 -4 30 -10 30 -5
0 -10 -13 -10 -30z"/>
<path d="M1397 433 c-4 -3 -7 -17 -7 -30 0 -33 24 -24 28 10 3 26 -7 35 -21
20z"/>
<path d="M2170 365 c0 -16 6 -25 15 -25 9 0 15 9 15 25 0 16 -6 25 -15 25 -9
0 -15 -9 -15 -25z"/>
<path d="M1390 345 c0 -14 5 -25 10 -25 6 0 10 11 10 25 0 14 -4 25 -10 25 -5
0 -10 -11 -10 -25z"/>
<path d="M2180 305 c0 -14 5 -25 10 -25 6 0 10 11 10 25 0 14 -4 25 -10 25 -5
0 -10 -11 -10 -25z"/>
</g>
</svg>
